HIERARCHY
ROOT root
{
	OFFSET 0.000000 0.000000 0.000000
	CHANNELS 6 Xposition Yposition Zposition Zrotation Yrotation Xrotation
	JOINT lhip
	{
		OFFSET 0.058581 -0.082280 -0.017664
		CHANNELS 3 Zrotation Yrotation Xrotation
		JOINT lknee
		{
			OFFSET 0.043451 -0.386469 0.008037
			CHANNELS 3 Zrotation Yrotation Xrotation
			JOINT lankle
			{
				OFFSET -0.014790 -0.426874 -0.037428
				CHANNELS 3 Zrotation Yrotation Xrotation
				JOINT ltoe
				{
					OFFSET 0.041054 -0.060286 0.122042
					CHANNELS 3 Zrotation Yrotation Xrotation
					End Site
					{
						OFFSET 0.000000 0.000000 0.000000
					}
				}
			}
		}
	}
	JOINT rhip
	{
		OFFSET -0.060310 -0.090513 -0.013543
		CHANNELS 3 Zrotation Yrotation Xrotation
		JOINT rknee
		{
			OFFSET -0.043257 -0.383688 -0.004843
			CHANNELS 3 Zrotation Yrotation Xrotation
			JOINT rankle
			{
				OFFSET 0.019056 -0.420046 -0.034562
				CHANNELS 3 Zrotation Yrotation Xrotation
				JOINT rtoe
				{
					OFFSET -0.034840 -0.062106 0.130323
					CHANNELS 3 Zrotation Yrotation Xrotation
					End Site
					{
						OFFSET 0.000000 0.000000 0.000000
					}
				}
			}
		}
	}
	JOINT lowerback
	{
		OFFSET 0.004439 0.124404 -0.038385
		CHANNELS 3 Zrotation Yrotation Xrotation
		JOINT upperback
		{
			OFFSET 0.004488 0.137956 0.026820
			CHANNELS 3 Zrotation Yrotation Xrotation
			JOINT chest
			{
				OFFSET -0.002265 0.056032 0.002855
				CHANNELS 3 Zrotation Yrotation Xrotation
				JOINT lowerneck
				{
					OFFSET -0.013390 0.211636 -0.033468
					CHANNELS 3 Zrotation Yrotation Xrotation
					JOINT upperneck
					{
						OFFSET 0.010113 0.088937 0.050410
						CHANNELS 3 Zrotation Yrotation Xrotation
						End Site
						{
							OFFSET 0.000000 0.000000 0.000000
						}
					}
				}
				JOINT lclavicle
				{
					OFFSET 0.071702 0.114000 -0.018898
					CHANNELS 3 Zrotation Yrotation Xrotation
					JOINT lshoulder
					{
						OFFSET 0.122921 0.045205 -0.019046
						CHANNELS 3 Zrotation Yrotation Xrotation
						JOINT lelbow
						{
							OFFSET 0.255332 -0.015649 -0.022946
							CHANNELS 3 Zrotation Yrotation Xrotation
							JOINT lwrist
							{
								OFFSET 0.265709 0.012698 -0.007375
								CHANNELS 3 Zrotation Yrotation Xrotation
								End Site
								{
									OFFSET 0.000000 0.000000 0.000000
								}
							}
						}
					}
				}
				JOINT rclavicle
				{
					OFFSET -0.082954 0.112472 -0.023707
					CHANNELS 3 Zrotation Yrotation Xrotation
					JOINT rshoulder
					{
						OFFSET -0.113228 0.046853 -0.008472
						CHANNELS 3 Zrotation Yrotation Xrotation
						JOINT relbow
						{
							OFFSET -0.260127 -0.014369 -0.031269
							CHANNELS 3 Zrotation Yrotation Xrotation
							JOINT rwrist
							{
								OFFSET -0.269108 0.006794 -0.006027
								CHANNELS 3 Zrotation Yrotation Xrotation
								End Site
								{
									OFFSET 0.000000 0.000000 0.000000
								}
							}
						}
					}
				}
			}
		}
	}
}
MOTION
Frames: 10
Frame Time: 0.033333
0.554548 0.236274 0.999721 87.213552 3.616755 103.005700 5.428634 6.184446 -9.690239 4.187991 -2.250670 -8.204398 -5.394514 13.622859 -2.046805 0.000000 -0.000000 0.000000 0.315485 -2.659456 -13.797915 -1.766057 5.332824 -1.046341 4.276872 -9.296846 -0.506884 0.000000 -0.000000 0.000000 2.200975 2.698481 6.814471 -5.927311 -0.640385 3.321965 -0.089414 8.206628 -9.341515 -4.030143 -10.258569 -4.863609 10.537312 5.815824 -11.897866 -15.835271 -39.278203 -7.293278 -44.026787 -33.453192 18.079333 19.442201 -43.551711 -10.249781 18.175064 -4.228678 -4.768257 -7.231177 38.045438 -4.438864 -7.748576 33.541446 -22.773831 11.167076 27.725378 11.295154 0.023045 0.407555 -4.432177 
0.554363 0.236319 0.999696 87.148596 3.624809 103.065305 5.402475 6.208909 -9.770482 4.222634 -2.219773 -8.181092 -5.487567 13.611057 -2.052145 0.000000 -0.000000 0.000000 0.308330 -2.681068 -13.914331 -1.748964 5.295656 -0.996644 4.405388 -9.197011 -0.530011 0.000000 -0.000000 0.000000 2.144922 2.712914 6.702605 -5.895667 -0.692560 3.372946 -0.095101 8.296695 -9.362310 -4.165589 -10.161108 -4.729403 10.665670 5.829851 -11.910203 -15.840719 -39.488844 -7.222047 -43.825756 -33.349124 17.741429 19.109291 -43.516880 -10.006054 18.575997 -4.799189 -4.687199 -7.038158 38.317486 -4.161101 -7.837562 33.297928 -22.829777 11.740115 27.871531 13.202841 -2.039591 1.967195 -0.679804 
0.554176 0.236260 0.999699 87.135455 3.635800 103.126778 5.405897 6.208492 -9.861999 4.237110 -2.185422 -8.153022 -5.660091 13.580932 -2.090149 0.000000 -0.000000 0.000000 0.295888 -2.686096 -14.011379 -1.710897 5.171029 -0.970661 4.546069 -9.032663 -0.571599 0.000000 -0.000000 0.000000 2.034503 2.745284 6.587599 -5.816285 -0.697333 3.478781 -0.074216 8.387946 -9.435237 -4.447943 -10.179572 -4.514025 10.931983 5.900639 -11.885395 -15.936172 -39.733508 -7.172064 -43.661329 -33.226482 17.270076 18.696237 -43.527384 -9.745033 18.387469 -5.702656 -4.537446 -6.631337 38.501408 -3.754361 -8.366123 32.800704 -23.108806 12.637829 27.835722 16.921401 -3.690021 5.038663 6.016653 
0.554304 0.236292 0.999525 87.242937 3.696855 103.239110 5.459051 6.212678 -10.012530 4.264334 -2.168150 -8.148599 -5.895627 13.474093 -2.128021 0.000000 -0.000000 0.000000 0.362419 -2.762230 -14.110403 -1.678878 4.945736 -0.999374 4.559535 -8.794770 -0.617696 0.000000 -0.000000 0.000000 2.053387 2.791998 6.378790 -5.727044 -0.749166 3.747135 -0.014418 8.385754 -9.676619 -4.816231 -10.328207 -4.129643 11.161660 5.956714 -11.924244 -16.186265 -39.919216 -7.059971 -43.552238 -33.025161 16.796115 18.413148 -43.639881 -10.078665 18.132014 -6.339366 -4.163974 -6.540783 38.673284 -3.498370 -9.132685 32.234527 -23.897429 14.108470 27.115287 18.596577 -3.954463 8.578975 12.289105 
0.554464 0.236362 0.999400 87.409383 3.723794 103.327733 5.511423 6.191338 -10.172137 4.240777 -2.158407 -8.080040 -6.079162 13.331832 -2.178122 0.000000 -0.000000 0.000000 0.390162 -2.862565 -14.163974 -1.633929 4.769013 -1.030212 4.550933 -8.631214 -0.662861 0.000000 -0.000000 0.000000 2.126051 2.821539 6.224968 -5.718843 -0.839661 3.879127 -0.022144 8.458012 -9.767178 -5.107463 -10.519801 -3.995156 11.435757 5.926533 -11.833549 -16.529858 -40.104819 -6.933892 -43.341014 -32.936287 16.535954 18.014192 -43.641157 -10.227422 18.080660 -6.809323 -3.752802 -6.291156 38.735181 -3.241746 -9.812018 31.327676 -24.560212 15.536545 27.130444 19.361125 -4.123682 10.952380 17.048012 
0.554432 0.236357 0.999397 87.592512 3.704587 103.391030 5.535205 6.078218 -10.319943 4.212324 -2.109898 -7.983251 -6.094305 13.183002 -2.143170 0.000000 -0.000000 0.000000 0.398390 -2.927684 -14.207474 -1.652931 4.628607 -1.029189 4.574436 -8.578871 -0.705777 0.000000 -0.000000 0.000000 2.149050 2.819296 6.263004 -5.697418 -0.955902 3.773131 -0.053790 8.436622 -9.791897 -5.294757 -10.711978 -3.974156 11.670517 5.967236 -11.686370 -16.599523 -40.154107 -6.865765 -43.373726 -32.907471 16.546932 18.010191 -43.516798 -10.120206 17.905266 -7.001679 -3.661943 -6.063056 38.515600 -3.121356 -9.933438 30.952248 -24.510836 15.913938 27.626254 21.494459 -4.088272 11.810021 20.332158 
0.554622 0.236295 0.999307 87.769481 3.679928 103.453015 5.549141 5.995420 -10.426262 4.194419 -2.165457 -7.942543 -6.103805 13.091977 -2.117241 0.000000 -0.000000 0.000000 0.406601 -3.020055 -14.215636 -1.667911 4.513404 -1.068396 4.537267 -8.570790 -0.721727 0.000000 -0.000000 0.000000 2.134538 2.791374 6.191584 -5.641323 -1.080821 3.770668 -0.054816 8.387634 -9.823767 -5.434249 -10.888854 -3.939230 11.852619 6.091990 -11.520652 -16.687564 -40.199109 -6.728837 -43.322021 -32.823642 16.451167 18.007990 -43.534994 -10.165774 17.972547 -7.037458 -3.705789 -5.909041 38.416444 -3.022132 -10.105133 30.849989 -24.548958 16.123466 27.583349 23.025828 -4.385243 12.430235 22.996372 
0.554716 0.236301 0.999262 87.777732 3.668197 103.441558 5.545973 5.973525 -10.418584 4.182773 -2.179254 -7.919217 -6.053632 13.118532 -2.101203 0.000000 -0.000000 0.000000 0.391498 -3.040168 -14.186380 -1.657580 4.540624 -1.093097 4.511125 -8.580553 -0.719960 0.000000 -0.000000 0.000000 2.124219 2.791925 6.183499 -5.587914 -1.140768 3.796114 -0.026882 8.366067 -9.850806 -5.507878 -10.944645 -3.963899 11.824083 6.256379 -11.225209 -16.795087 -40.257598 -6.597672 -43.218678 -32.737732 16.329436 18.080528 -43.557975 -10.318163 18.035921 -7.026725 -3.714318 -5.832186 38.419396 -2.963981 -10.269660 30.928962 -24.584784 16.182689 27.318799 23.670335 -4.725642 12.641439 24.318960 
0.554819 0.236182 0.999243 87.564360 3.695040 103.369181 5.572661 6.050536 -10.281351 4.162135 -2.144504 -7.950895 -5.973938 13.178657 -2.117702 0.000000 -0.000000 0.000000 0.410797 -2.977195 -14.156791 -1.661339 4.675587 -1.053099 4.471632 -8.563390 -0.736189 0.000000 -0.000000 0.000000 2.103312 2.833013 6.223935 -5.553359 -1.098068 3.855288 -0.049383 8.348401 -9.915585 -5.464817 -10.907183 -3.980783 11.835358 6.227970 -11.152145 -16.791355 -40.178629 -6.573784 -43.200135 -32.758350 16.379224 18.161748 -43.538720 -10.239972 18.180949 -6.819088 -3.666305 -5.691789 38.399059 -2.969759 -10.118127 31.395317 -24.518791 15.677142 26.928757 23.299037 -5.371845 12.310918 23.626177 
0.555035 0.235966 0.999181 87.343942 3.697521 103.286110 5.562226 6.156984 -10.130524 4.146285 -2.226002 -7.969337 -5.846280 13.358573 -2.178238 0.000000 -0.000000 0.000000 0.411404 -2.917182 -14.075561 -1.687111 4.909990 -1.092485 4.437773 -8.724814 -0.679319 0.000000 -0.000000 0.000000 2.136869 2.809404 6.423062 -5.590172 -1.051746 3.573839 -0.065327 8.258324 -9.777059 -5.159324 -10.681505 -4.052094 11.544853 6.160783 -11.231731 -16.644780 -39.804555 -6.717145 -43.387424 -32.886952 16.730610 18.267779 -43.554478 -9.908464 18.698615 -6.127623 -3.951259 -5.885067 38.198477 -3.261157 -9.399534 32.254039 -23.925446 14.783409 26.726071 21.157729 -6.071388 9.916676 17.402502 
